<svg width="15" height="19" viewBox="0 0 15 19" fill="none" xmlns="http://www.w3.org/2000/svg">
<path d="M14.19 9.94954C12.7508 6.20954 7.62667 6.00788 8.86417 0.572043C8.95583 0.168709 8.525 -0.142957 8.17667 0.0678761C4.84917 2.02954 2.45667 5.96204 4.46417 11.1137C4.62917 11.5354 4.13417 11.9295 3.77667 11.6545C2.1175 10.3987 1.94333 8.59288 2.09 7.30038C2.145 6.82371 1.52167 6.59454 1.25583 6.98871C0.6325 7.94204 0 9.48204 0 11.8012C0.348333 16.9345 4.68417 18.5112 6.2425 18.7129C8.47 18.997 10.8808 18.5845 12.6133 16.9987C14.52 15.2295 15.2167 12.4062 14.19 9.94954ZM5.68333 14.5604C7.00333 14.2395 7.68167 13.2862 7.865 12.4429C8.1675 11.132 6.985 9.84871 7.7825 7.77704C8.085 9.49121 10.78 10.5637 10.78 12.4337C10.8533 14.7529 8.34167 16.742 5.68333 14.5604Z" fill="white"/>
</svg>
