<svg width="20" height="15" viewBox="0 0 20 15" fill="none" xmlns="http://www.w3.org/2000/svg">
<path d="M12.8155 0C12.62 0.343328 12.4445 0.6985 12.285 1.06156C10.7693 0.836625 9.22572 0.836625 7.70608 1.06156C7.55052 0.6985 7.37103 0.343328 7.1756 0C5.75167 0.240734 4.36364 0.662984 3.04741 1.25888C0.43887 5.08288 -0.26711 8.8082 0.08389 12.4822C1.61151 13.599 3.32262 14.4515 5.1454 14.996C5.55622 14.4515 5.91919 13.8713 6.2303 13.2676C5.63999 13.0505 5.06961 12.7782 4.52319 12.4625C4.66677 12.3599 4.80637 12.2534 4.94198 12.1508C8.14482 13.6425 11.8542 13.6425 15.061 12.1508C15.1966 12.2613 15.3362 12.3678 15.4798 12.4625C14.9334 12.7822 14.363 13.0505 13.7687 13.2715C14.0798 13.8753 14.4428 14.4554 14.8536 15C16.6764 14.4554 18.3875 13.6069 19.9152 12.4901C20.3299 8.22809 19.2052 4.53433 16.9436 1.26283C15.6314 0.666937 14.2434 0.244672 12.8194 0.00789062L12.8155 0ZM6.67702 10.221C5.69185 10.221 4.87419 9.33702 4.87419 8.24389C4.87419 7.15077 5.65993 6.26283 6.67304 6.26283C7.68615 6.26283 8.49182 7.1547 8.47587 8.24389C8.45992 9.33308 7.68215 10.221 6.67702 10.221ZM13.322 10.221C12.3328 10.221 11.5232 9.33702 11.5232 8.24389C11.5232 7.15077 12.3089 6.26283 13.322 6.26283C14.3351 6.26283 15.1368 7.1547 15.1208 8.24389C15.1049 9.33308 14.3271 10.221 13.322 10.221Z" fill="white"/>
</svg>
