<svg width="18" height="17" viewBox="0 0 18 17" fill="none" xmlns="http://www.w3.org/2000/svg">
<path d="M9.71182 11.1095L7.63364 8.976L7.65818 8.9505C9.08182 7.3015 10.0964 5.406 10.6936 3.4H13.0909V1.7H7.36364V0H5.72727V1.7H0V3.3915H9.13909C8.59091 5.032 7.72364 6.5875 6.54545 7.9475C5.78455 7.072 5.15455 6.1115 4.65545 5.1H3.01909C3.61636 6.4855 4.43455 7.7945 5.45727 8.976L1.29273 13.243L2.45455 14.45L6.54545 10.2L9.09 12.8435L9.71182 11.1095ZM14.3182 6.8H12.6818L9 17H10.6364L11.5527 14.45H15.4391L16.3636 17H18L14.3182 6.8ZM12.1745 12.75L13.5 9.0695L14.8255 12.75H12.1745Z" fill="white"/>
</svg>
